<svg xmlns="http://www.w3.org/2000/svg" viewBox="0 0 512 512" role="img" aria-label="Çalışma Günlüğü">
  <rect width="512" height="512" rx="112" fill="#f4f4f1"/>
  <rect x="76" y="60" width="360" height="392" rx="54" fill="#fbf9f8" stroke="#c1c8c6" stroke-width="10"/>
  <line x1="162" y1="60" x2="162" y2="452" stroke="#ba1a1a" stroke-opacity="0.25" stroke-width="8"/>
  <line x1="108" y1="156" x2="404" y2="156" stroke="#b6c9d7" stroke-width="8"/>
  <line x1="108" y1="220" x2="404" y2="220" stroke="#b6c9d7" stroke-width="8"/>
  <line x1="108" y1="284" x2="404" y2="284" stroke="#b6c9d7" stroke-width="8"/>
  <line x1="108" y1="348" x2="404" y2="348" stroke="#b6c9d7" stroke-width="8"/>
  <path d="M278 380c28-6 48-26 58-52 20 18 30 38 30 62 0 22-16 38-38 38-28 0-44-18-50-48z" fill="#47615d"/>
  <path d="M278 380c4-28 20-50 44-66l14 14c-8 22-28 40-58 52z" fill="#7b542b"/>
</svg>
